<svg width="179" height="32" viewBox="0 0 179 32" fill="none" xmlns="http://www.w3.org/2000/svg">
<path d="M41 7.91111C39.2621 5.79955 36.887 4.26232 34.204 3.51246C31.521 2.7626 28.663 2.83724 26.0259 3.72604C23.3887 4.61485 21.1032 6.27379 19.486 8.47298C17.8688 10.6722 17 13.3027 17 16C17 18.6973 17.8688 21.3278 19.486 23.527C21.1032 25.7262 23.3887 27.3852 26.0259 28.274C28.663 29.1628 31.5211 29.2374 34.204 28.4875C36.887 27.7377 39.2621 26.2005 41 24.0889" stroke="#DCDCDC" stroke-width="5" stroke-linecap="round" stroke-linejoin="round"/>
<path d="M53.16 12.02C53.24 10.78 53.7133 9.81333 54.58 9.12C55.46 8.42667 56.58 8.08 57.94 8.08C58.8733 8.08 59.68 8.24667 60.36 8.58C61.04 8.91333 61.5533 9.36667 61.9 9.94C62.2467 10.5133 62.42 11.16 62.42 11.88C62.42 12.7067 62.2 13.4133 61.76 14C61.32 14.5867 60.7933 14.98 60.18 15.18V15.26C60.9667 15.5 61.58 15.94 62.02 16.58C62.46 17.2067 62.68 18.0133 62.68 19C62.68 19.7867 62.5 20.4867 62.14 21.1C61.78 21.7133 61.2467 22.2 60.54 22.56C59.8333 22.9067 58.9867 23.08 58 23.08C56.56 23.08 55.3733 22.7133 54.44 21.98C53.52 21.2333 53.0267 20.1667 52.96 18.78H55.16C55.2133 19.4867 55.4867 20.0667 55.98 20.52C56.4733 20.96 57.14 21.18 57.98 21.18C58.7933 21.18 59.42 20.96 59.86 20.52C60.3 20.0667 60.52 19.4867 60.52 18.78C60.52 17.8467 60.22 17.1867 59.62 16.8C59.0333 16.4 58.1267 16.2 56.9 16.2H56.38V14.32H56.92C58 14.3067 58.82 14.1267 59.38 13.78C59.9533 13.4333 60.24 12.8867 60.24 12.14C60.24 11.5 60.0333 10.9933 59.62 10.62C59.2067 10.2333 58.62 10.04 57.86 10.04C57.1133 10.04 56.5333 10.2333 56.12 10.62C55.7067 10.9933 55.46 11.46 55.38 12.02H53.16ZM64.615 16.02C64.615 14.66 64.9283 13.44 65.555 12.36C66.195 11.28 67.055 10.44 68.135 9.84C69.2283 9.22667 70.4217 8.92 71.715 8.92C73.195 8.92 74.5083 9.28667 75.655 10.02C76.815 10.74 77.655 11.7667 78.175 13.1H75.435C75.075 12.3667 74.575 11.82 73.935 11.46C73.295 11.1 72.555 10.92 71.715 10.92C70.795 10.92 69.975 11.1267 69.255 11.54C68.535 11.9533 67.9683 12.5467 67.555 13.32C67.155 14.0933 66.955 14.9933 66.955 16.02C66.955 17.0467 67.155 17.9467 67.555 18.72C67.9683 19.4933 68.535 20.0933 69.255 20.52C69.975 20.9333 70.795 21.14 71.715 21.14C72.555 21.14 73.295 20.96 73.935 20.6C74.575 20.24 75.075 19.6933 75.435 18.96H78.175C77.655 20.2933 76.815 21.32 75.655 22.04C74.5083 22.76 73.195 23.12 71.715 23.12C70.4083 23.12 69.215 22.82 68.135 22.22C67.055 21.6067 66.195 20.76 65.555 19.68C64.9283 18.6 64.615 17.38 64.615 16.02ZM85.6238 23.18C84.5838 23.18 83.6438 22.9467 82.8038 22.48C81.9638 22 81.3038 21.3333 80.8238 20.48C80.3438 19.6133 80.1038 18.6133 80.1038 17.48C80.1038 16.36 80.3504 15.3667 80.8438 14.5C81.3371 13.6333 82.0104 12.9667 82.8638 12.5C83.7171 12.0333 84.6704 11.8 85.7238 11.8C86.7771 11.8 87.7304 12.0333 88.5838 12.5C89.4371 12.9667 90.1104 13.6333 90.6038 14.5C91.0971 15.3667 91.3438 16.36 91.3438 17.48C91.3438 18.6 91.0904 19.5933 90.5838 20.46C90.0771 21.3267 89.3838 22 88.5038 22.48C87.6371 22.9467 86.6771 23.18 85.6238 23.18ZM85.6238 21.2C86.2104 21.2 86.7571 21.06 87.2638 20.78C87.7838 20.5 88.2038 20.08 88.5238 19.52C88.8438 18.96 89.0038 18.28 89.0038 17.48C89.0038 16.68 88.8504 16.0067 88.5438 15.46C88.2371 14.9 87.8304 14.48 87.3238 14.2C86.8171 13.92 86.2704 13.78 85.6838 13.78C85.0971 13.78 84.5504 13.92 84.0438 14.2C83.5504 14.48 83.1571 14.9 82.8638 15.46C82.5704 16.0067 82.4238 16.68 82.4238 17.48C82.4238 18.6667 82.7238 19.5867 83.3238 20.24C83.9371 20.88 84.7038 21.2 85.6238 21.2ZM106.938 11.8C107.804 11.8 108.578 11.98 109.258 12.34C109.951 12.7 110.491 13.2333 110.878 13.94C111.278 14.6467 111.478 15.5 111.478 16.5V23H109.218V16.84C109.218 15.8533 108.971 15.1 108.478 14.58C107.984 14.0467 107.311 13.78 106.458 13.78C105.604 13.78 104.924 14.0467 104.418 14.58C103.924 15.1 103.678 15.8533 103.678 16.84V23H101.418V16.84C101.418 15.8533 101.171 15.1 100.678 14.58C100.184 14.0467 99.511 13.78 98.6577 13.78C97.8043 13.78 97.1243 14.0467 96.6177 14.58C96.1243 15.1 95.8777 15.8533 95.8777 16.84V23H93.5977V11.98H95.8777V13.24C96.251 12.7867 96.7243 12.4333 97.2977 12.18C97.871 11.9267 98.4843 11.8 99.1377 11.8C100.018 11.8 100.804 11.9867 101.498 12.36C102.191 12.7333 102.724 13.2733 103.098 13.98C103.431 13.3133 103.951 12.7867 104.658 12.4C105.364 12 106.124 11.8 106.938 11.8ZM127.719 11.8C128.586 11.8 129.359 11.98 130.039 12.34C130.732 12.7 131.272 13.2333 131.659 13.94C132.059 14.6467 132.259 15.5 132.259 16.5V23H129.999V16.84C129.999 15.8533 129.752 15.1 129.259 14.58C128.766 14.0467 128.092 13.78 127.239 13.78C126.386 13.78 125.706 14.0467 125.199 14.58C124.706 15.1 124.459 15.8533 124.459 16.84V23H122.199V16.84C122.199 15.8533 121.952 15.1 121.459 14.58C120.966 14.0467 120.292 13.78 119.439 13.78C118.586 13.78 117.906 14.0467 117.399 14.58C116.906 15.1 116.659 15.8533 116.659 16.84V23H114.379V11.98H116.659V13.24C117.032 12.7867 117.506 12.4333 118.079 12.18C118.652 11.9267 119.266 11.8 119.919 11.8C120.799 11.8 121.586 11.9867 122.279 12.36C122.972 12.7333 123.506 13.2733 123.879 13.98C124.212 13.3133 124.732 12.7867 125.439 12.4C126.146 12 126.906 11.8 127.719 11.8ZM145.26 17.22C145.26 17.6333 145.233 18.0067 145.18 18.34H136.76C136.827 19.22 137.153 19.9267 137.74 20.46C138.327 20.9933 139.047 21.26 139.9 21.26C141.127 21.26 141.993 20.7467 142.5 19.72H144.96C144.627 20.7333 144.02 21.5667 143.14 22.22C142.273 22.86 141.193 23.18 139.9 23.18C138.847 23.18 137.9 22.9467 137.06 22.48C136.233 22 135.58 21.3333 135.1 20.48C134.633 19.6133 134.4 18.6133 134.4 17.48C134.4 16.3467 134.627 15.3533 135.08 14.5C135.547 13.6333 136.193 12.9667 137.02 12.5C137.86 12.0333 138.82 11.8 139.9 11.8C140.94 11.8 141.867 12.0267 142.68 12.48C143.493 12.9333 144.127 13.5733 144.58 14.4C145.033 15.2133 145.26 16.1533 145.26 17.22ZM142.88 16.5C142.867 15.66 142.567 14.9867 141.98 14.48C141.393 13.9733 140.667 13.72 139.8 13.72C139.013 13.72 138.34 13.9733 137.78 14.48C137.22 14.9733 136.887 15.6467 136.78 16.5H142.88ZM149.784 13.58C150.117 13.02 150.557 12.5867 151.104 12.28C151.664 11.96 152.324 11.8 153.084 11.8V14.16H152.504C151.611 14.16 150.931 14.3867 150.464 14.84C150.011 15.2933 149.784 16.08 149.784 17.2V23H147.504V11.98H149.784V13.58ZM154.42 17.48C154.42 16.3467 154.646 15.3533 155.1 14.5C155.566 13.6333 156.206 12.9667 157.02 12.5C157.833 12.0333 158.766 11.8 159.82 11.8C161.153 11.8 162.253 12.12 163.12 12.76C164 13.3867 164.593 14.2867 164.9 15.46H162.44C162.24 14.9133 161.92 14.4867 161.48 14.18C161.04 13.8733 160.486 13.72 159.82 13.72C158.886 13.72 158.14 14.0533 157.58 14.72C157.033 15.3733 156.76 16.2933 156.76 17.48C156.76 18.6667 157.033 19.5933 157.58 20.26C158.14 20.9267 158.886 21.26 159.82 21.26C161.14 21.26 162.013 20.68 162.44 19.52H164.9C164.58 20.64 163.98 21.5333 163.1 22.2C162.22 22.8533 161.126 23.18 159.82 23.18C158.766 23.18 157.833 22.9467 157.02 22.48C156.206 22 155.566 21.3333 155.1 20.48C154.646 19.6133 154.42 18.6133 154.42 17.48ZM177.272 17.22C177.272 17.6333 177.245 18.0067 177.192 18.34H168.772C168.839 19.22 169.165 19.9267 169.752 20.46C170.339 20.9933 171.059 21.26 171.912 21.26C173.139 21.26 174.005 20.7467 174.512 19.72H176.972C176.639 20.7333 176.032 21.5667 175.152 22.22C174.285 22.86 173.205 23.18 171.912 23.18C170.859 23.18 169.912 22.9467 169.072 22.48C168.245 22 167.592 21.3333 167.112 20.48C166.645 19.6133 166.412 18.6133 166.412 17.48C166.412 16.3467 166.639 15.3533 167.092 14.5C167.559 13.6333 168.205 12.9667 169.032 12.5C169.872 12.0333 170.832 11.8 171.912 11.8C172.952 11.8 173.879 12.0267 174.692 12.48C175.505 12.9333 176.139 13.5733 176.592 14.4C177.045 15.2133 177.272 16.1533 177.272 17.22ZM174.892 16.5C174.879 15.66 174.579 14.9867 173.992 14.48C173.405 13.9733 172.679 13.72 171.812 13.72C171.025 13.72 170.352 13.9733 169.792 14.48C169.232 14.9733 168.899 15.6467 168.792 16.5H174.892Z" fill="#18191F"/>
<path d="M3 7.91111C4.73793 5.79955 7.11296 4.26232 9.79596 3.51246C12.479 2.7626 15.337 2.83724 17.9741 3.72604C20.6113 4.61485 22.8968 6.27379 24.514 8.47298C26.1312 10.6722 27 13.3027 27 16C27 18.6973 26.1312 21.3278 24.514 23.527C22.8968 25.7262 20.6113 27.3852 17.9741 28.274C15.337 29.1628 12.4789 29.2374 9.79595 28.4875C7.11296 27.7377 4.73793 26.2005 3 24.0889" stroke="#3A408F" stroke-width="5" stroke-linecap="round" stroke-linejoin="round"/>
</svg>
