<svg width="138" height="149" viewBox="0 0 138 149" fill="none" xmlns="http://www.w3.org/2000/svg">
<g filter="url(#filter0_df_226_452)">
<path d="M69 29C46.908 29 29 46.908 29 69C29 85.948 39.544 100.42 54.424 106.248C54.076 103.084 53.756 98.228 54.564 94.776C55.292 91.656 59.252 74.892 59.252 74.892C59.252 74.892 58.056 72.496 58.056 68.956C58.056 63.392 61.28 59.244 65.292 59.244C68.704 59.244 70.352 61.808 70.352 64.876C70.352 68.308 68.168 73.44 67.04 78.192C66.096 82.176 69.036 85.42 72.964 85.42C80.072 85.42 85.536 77.924 85.536 67.104C85.536 57.528 78.656 50.832 68.828 50.832C57.448 50.832 50.768 59.368 50.768 68.192C50.768 71.628 52.092 75.316 53.744 77.32C54.072 77.716 54.116 78.064 54.02 78.468C53.716 79.732 53.044 82.448 52.912 83.004C52.74 83.736 52.332 83.892 51.576 83.536C46.58 81.208 43.456 73.904 43.456 68.04C43.456 55.424 52.624 43.832 69.888 43.832C83.764 43.832 94.548 53.72 94.548 66.936C94.548 80.724 85.856 91.816 73.792 91.816C69.74 91.816 65.928 89.708 64.624 87.224C64.624 87.224 62.616 94.86 62.132 96.736C61.228 100.208 58.792 104.568 57.16 107.224C60.9 108.372 64.876 109 69 109C91.088 109 109 91.088 109 69C109 46.912 91.092 29 69 29Z" fill="url(#paint0_linear_226_452)" fill-opacity="0.2" shape-rendering="crispEdges"/>
<path d="M57.8094 106.975C61.3565 108.011 65.1117 108.575 69 108.575C90.8533 108.575 108.575 90.8533 108.575 69C108.575 47.1467 90.8573 29.425 69 29.425C47.1427 29.425 29.425 47.1427 29.425 69C29.425 85.5187 39.5494 99.6611 53.9276 105.59C53.6124 102.435 53.3829 97.9575 54.1501 94.6794C54.5143 93.1188 55.6864 88.1471 56.7674 83.5664C57.3079 81.2759 57.8256 79.0828 58.2083 77.4625L58.6668 75.5207L58.7937 74.9833L58.8045 74.9376C58.7702 74.8609 58.7243 74.7545 58.6706 74.6203C58.5537 74.3285 58.3994 73.9048 58.2455 73.3688C57.9379 72.2973 57.631 70.7734 57.631 68.956C57.631 63.276 60.942 58.819 65.292 58.819C67.1153 58.819 68.505 59.5096 69.4304 60.6403C70.3464 61.7596 70.777 63.2713 70.777 64.876C70.777 66.6624 70.2118 68.8596 69.5263 71.1603C69.3331 71.8088 69.1301 72.4665 68.9255 73.1289C68.3965 74.8423 67.8576 76.5878 67.4535 78.2902C66.5798 81.9779 69.2795 84.995 72.964 84.995C76.3531 84.995 79.3759 83.212 81.5671 80.0761C83.7615 76.9356 85.111 72.4467 85.111 67.104C85.111 62.4213 83.4309 58.4662 80.571 55.6815C77.7103 52.896 73.6437 51.257 68.828 51.257C57.7008 51.257 51.193 59.5842 51.193 68.192C51.193 71.5421 52.4903 75.1307 54.0716 77.0492C54.2695 77.2883 54.3995 77.535 54.4566 77.8021C54.5135 78.0683 54.4913 78.3229 54.4335 78.5663L54.4332 78.5674C54.267 79.2583 53.9944 80.3691 53.7584 81.3303C53.5595 82.1405 53.3867 82.8444 53.3257 83.1012L57.8094 106.975ZM57.8094 106.975C59.4312 104.289 61.6744 100.18 62.5433 96.8431L62.5435 96.8422C62.7853 95.9052 63.408 93.5283 63.9706 91.3844C64.2518 90.3127 64.5179 89.2996 64.7137 88.5544L64.7895 88.2661C65.5504 89.2647 66.6688 90.151 67.9826 90.8292C69.662 91.6961 71.6946 92.241 73.792 92.241C86.1663 92.241 94.973 80.8752 94.973 66.936C94.973 53.4571 83.9695 43.407 69.888 43.407C61.1566 43.407 54.4356 46.3409 49.8966 50.9053C45.3609 55.4665 43.031 61.6293 43.031 68.04C43.031 71.0409 43.8287 74.3969 45.2613 77.302C46.6914 80.2018 48.7793 82.7014 51.3957 83.9209C51.7967 84.1096 52.2292 84.2271 52.619 84.0733C53.0327 83.9101 53.2284 83.5146 53.3255 83.1022L57.8094 106.975Z" stroke="white" stroke-width="0.85" shape-rendering="crispEdges"/>
</g>
<g filter="url(#filter1_bd_226_452)">
<path d="M69 23C46.908 23 29 40.908 29 63C29 79.948 39.544 94.42 54.424 100.248C54.076 97.084 53.756 92.228 54.564 88.776C55.292 85.656 59.252 68.892 59.252 68.892C59.252 68.892 58.056 66.496 58.056 62.956C58.056 57.392 61.28 53.244 65.292 53.244C68.704 53.244 70.352 55.808 70.352 58.876C70.352 62.308 68.168 67.44 67.04 72.192C66.096 76.176 69.036 79.42 72.964 79.42C80.072 79.42 85.536 71.924 85.536 61.104C85.536 51.528 78.656 44.832 68.828 44.832C57.448 44.832 50.768 53.368 50.768 62.192C50.768 65.628 52.092 69.316 53.744 71.32C54.072 71.716 54.116 72.064 54.02 72.468C53.716 73.732 53.044 76.448 52.912 77.004C52.74 77.736 52.332 77.892 51.576 77.536C46.58 75.208 43.456 67.904 43.456 62.04C43.456 49.424 52.624 37.832 69.888 37.832C83.764 37.832 94.548 47.72 94.548 60.936C94.548 74.724 85.856 85.816 73.792 85.816C69.74 85.816 65.928 83.708 64.624 81.224C64.624 81.224 62.616 88.86 62.132 90.736C61.228 94.208 58.792 98.568 57.16 101.224C60.9 102.372 64.876 103 69 103C91.088 103 109 85.088 109 63C109 40.912 91.092 23 69 23Z" fill="url(#paint1_linear_226_452)" fill-opacity="0.79" shape-rendering="crispEdges"/>
<path d="M57.733 101.005C61.3028 102.053 65.084 102.625 69 102.625C90.8809 102.625 108.625 84.8809 108.625 63C108.625 41.1191 90.8849 23.375 69 23.375C47.1151 23.375 29.375 41.1151 29.375 63C29.375 79.5692 39.5485 93.7505 53.9857 99.6684C53.6664 96.5098 53.4268 91.9892 54.1988 88.6908C54.5629 87.1302 55.7351 82.1586 56.816 77.5779C57.3565 75.2873 57.8743 73.0943 58.2569 71.4739L58.7155 69.5322L58.8424 68.9948L58.8571 68.9326C58.8224 68.8556 58.7742 68.7446 58.717 68.6017C58.6007 68.3113 58.4469 67.8892 58.2936 67.355C57.987 66.2871 57.681 64.7678 57.681 62.956C57.681 57.2896 60.9818 52.869 65.292 52.869C67.1015 52.869 68.4765 53.5538 69.3917 54.672C70.2986 55.7801 70.727 57.2796 70.727 58.876C70.727 60.6541 70.164 62.8447 69.4784 65.1461C69.2855 65.7935 69.0827 66.4505 68.8782 67.1126C68.3491 68.8265 67.8094 70.5745 67.4049 72.2786C66.5229 76.0012 69.2509 79.045 72.964 79.045C76.3725 79.045 79.4094 77.2513 81.6081 74.1047C83.8096 70.9541 85.161 66.4546 85.161 61.104C85.161 56.4089 83.4762 52.4405 80.6059 49.6457C77.7349 46.8501 73.6552 45.207 68.828 45.207C57.6711 45.207 51.143 53.5588 51.143 62.192C51.143 65.5521 52.4433 69.1523 54.0329 71.0809C54.2269 71.3152 54.3526 71.5548 54.4077 71.8126C54.4627 72.0694 54.4415 72.3162 54.3848 72.5547L54.3846 72.5557C54.2186 73.246 53.9459 74.357 53.7098 75.3185C53.5106 76.1299 53.3376 76.8348 53.2769 77.0906L52.912 77.004M57.733 101.005L51.576 77.536L51.4162 77.8753C51.4165 77.8754 51.4167 77.8755 51.4169 77.8756C51.8152 78.063 52.231 78.1726 52.6006 78.0268C52.9916 77.8726 53.1814 77.4971 53.2771 77.0898L52.912 77.004M57.733 101.005C59.3569 98.3211 61.6219 94.1834 62.4949 90.8305L62.4951 90.8297C62.7369 89.8926 63.3596 87.5155 63.9222 85.3717C64.2035 84.3 64.4696 83.2869 64.6654 82.5417L64.7675 82.1533L57.733 101.005ZM52.912 77.004C52.9725 76.7493 53.1462 76.0415 53.346 75.2275C53.5824 74.2645 53.8552 73.153 54.02 72.468L52.912 77.004Z" stroke="url(#paint2_linear_226_452)" stroke-width="0.75" shape-rendering="crispEdges"/>
</g>
<defs>
<filter id="filter0_df_226_452" x="0" y="0" width="138" height="149" filterUnits="userSpaceOnUse" color-interpolation-filters="sRGB">
<feFlood flood-opacity="0" result="BackgroundImageFix"/>
<feColorMatrix in="SourceAlpha" type="matrix" values="0 0 0 0 0 0 0 0 0 0 0 0 0 0 0 0 0 0 127 0" result="hardAlpha"/>
<feOffset dy="11"/>
<feGaussianBlur stdDeviation="14.5"/>
<feComposite in2="hardAlpha" operator="out"/>
<feColorMatrix type="matrix" values="0 0 0 0 0.279128 0 0 0 0 0 0 0 0 0 0 0 0 0 0.08 0"/>
<feBlend mode="normal" in2="BackgroundImageFix" result="effect1_dropShadow_226_452"/>
<feBlend mode="normal" in="SourceGraphic" in2="effect1_dropShadow_226_452" result="shape"/>
<feGaussianBlur stdDeviation="14.5" result="effect2_foregroundBlur_226_452"/>
</filter>
<filter id="filter1_bd_226_452" x="-41" y="-47" width="220" height="220" filterUnits="userSpaceOnUse" color-interpolation-filters="sRGB">
<feFlood flood-opacity="0" result="BackgroundImageFix"/>
<feGaussianBlur in="BackgroundImage" stdDeviation="35"/>
<feComposite in2="SourceAlpha" operator="in" result="effect1_backgroundBlur_226_452"/>
<feColorMatrix in="SourceAlpha" type="matrix" values="0 0 0 0 0 0 0 0 0 0 0 0 0 0 0 0 0 0 127 0" result="hardAlpha"/>
<feOffset dy="11"/>
<feGaussianBlur stdDeviation="14.5"/>
<feComposite in2="hardAlpha" operator="out"/>
<feColorMatrix type="matrix" values="0 0 0 0 0.279128 0 0 0 0 0 0 0 0 0 0 0 0 0 0.08 0"/>
<feBlend mode="normal" in2="effect1_backgroundBlur_226_452" result="effect2_dropShadow_226_452"/>
<feBlend mode="normal" in="SourceGraphic" in2="effect2_dropShadow_226_452" result="shape"/>
</filter>
<linearGradient id="paint0_linear_226_452" x1="69" y1="29" x2="69" y2="109" gradientUnits="userSpaceOnUse">
<stop stop-color="#FF1C1C"/>
<stop offset="1" stop-color="#FF6948"/>
</linearGradient>
<linearGradient id="paint1_linear_226_452" x1="69" y1="23" x2="69" y2="103" gradientUnits="userSpaceOnUse">
<stop offset="0.0851679" stop-color="#FF0E0E"/>
<stop offset="1" stop-color="#FF6B4B"/>
</linearGradient>
<linearGradient id="paint2_linear_226_452" x1="69" y1="23" x2="69" y2="103" gradientUnits="userSpaceOnUse">
<stop stop-color="#FFDCDC"/>
<stop offset="1" stop-color="#EEE6E6"/>
</linearGradient>
</defs>
</svg>
