<svg width="162" height="162" viewBox="0 0 162 162" fill="none" xmlns="http://www.w3.org/2000/svg">
<g filter="url(#filter0_df_226_455)">
<path d="M101 45H61C52.164 45 45 52.164 45 61V101C45 109.836 52.164 117 61 117H101C109.836 117 117 109.836 117 101V61C117 52.164 109.836 45 101 45ZM101.2 71.056C101.2 71.4 101.2 71.74 101.2 72.428C101.2 85.456 91.256 100.544 73.084 100.544C67.6 100.544 62.456 98.828 58 96.088C58.684 96.088 59.716 96.088 60.4 96.088C64.856 96.088 69.316 94.372 72.744 91.972C68.288 91.972 64.86 88.888 63.488 85.116C64.172 85.116 64.86 85.46 65.204 85.46C66.232 85.46 66.92 85.46 67.948 85.116C63.492 84.088 60.064 80.316 60.064 75.516C61.436 76.2 62.808 76.544 64.52 76.888C61.776 74.488 60.064 71.744 60.064 68.316C60.064 66.6 60.408 64.888 61.436 63.516C66.236 69.344 73.436 73.46 81.664 73.8C81.664 73.116 81.32 72.428 81.32 71.4C81.32 65.916 85.776 61.456 91.264 61.456C94.008 61.456 96.748 62.484 98.464 64.54C100.864 64.196 102.92 63.168 104.636 62.14C103.952 64.54 102.236 66.256 100.18 67.624C102.236 67.28 103.952 66.94 106.008 65.908C104.628 67.972 102.916 69.684 101.2 71.056Z" fill="url(#paint0_linear_226_455)" fill-opacity="0.29" shape-rendering="crispEdges"/>
<path d="M81.1909 73.3505C73.3012 72.8761 66.4002 68.8749 61.7641 63.2458L61.4202 62.8283L61.0959 63.2612C59.9921 64.7343 59.639 66.5499 59.639 68.316C59.639 71.4006 60.9675 73.9388 63.1154 76.1448C62.0772 75.8897 61.1638 75.5894 60.2536 75.1356L59.639 74.8292V75.516C59.639 79.926 62.4074 83.493 66.2179 85.0181C65.9098 85.0348 65.5842 85.035 65.204 85.035C65.1764 85.035 65.1141 85.0263 64.9943 84.995C64.9186 84.9753 64.8405 84.9524 64.7512 84.9262C64.7016 84.9116 64.6485 84.896 64.5904 84.8794C64.2861 84.7923 63.8939 84.691 63.488 84.691H62.8812L63.0886 85.2613C64.3748 88.7975 67.4214 91.7826 71.4553 92.3132C68.2504 94.3043 64.3155 95.663 60.4 95.663H60.396H60.392H60.3879H60.3839H60.3799H60.3758H60.3718H60.3677H60.3636H60.3595H60.3554H60.3513H60.3472H60.3431H60.339H60.3349H60.3307H60.3266H60.3224H60.3183H60.3141H60.31H60.3058H60.3016H60.2974H60.2932H60.289H60.2848H60.2806H60.2763H60.2721H60.2678H60.2636H60.2593H60.2551H60.2508H60.2465H60.2422H60.2379H60.2336H60.2293H60.225H60.2207H60.2164H60.2121H60.2077H60.2034H60.199H60.1947H60.1903H60.1859H60.1816H60.1772H60.1728H60.1684H60.164H60.1596H60.1552H60.1507H60.1463H60.1419H60.1374H60.133H60.1285H60.1241H60.1196H60.1152H60.1107H60.1062H60.1017H60.0972H60.0927H60.0882H60.0837H60.0792H60.0747H60.0702H60.0656H60.0611H60.0565H60.052H60.0474H60.0429H60.0383H60.0337H60.0292H60.0246H60.02H60.0154H60.0108H60.0062H60.0016H59.997H59.9924H59.9878H59.9831H59.9785H59.9739H59.9692H59.9646H59.9599H59.9553H59.9506H59.9459H59.9413H59.9366H59.9319H59.9272H59.9225H59.9179H59.9132H59.9085H59.9037H59.899H59.8943H59.8896H59.8849H59.8801H59.8754H59.8707H59.8659H59.8612H59.8564H59.8517H59.8469H59.8422H59.8374H59.8326H59.8279H59.8231H59.8183H59.8135H59.8087H59.8039H59.7991H59.7943H59.7895H59.7847H59.7799H59.7751H59.7703H59.7654H59.7606H59.7558H59.7509H59.7461H59.7413H59.7364H59.7316H59.7267H59.7219H59.717H59.7121H59.7073H59.7024H59.6975H59.6927H59.6878H59.6829H59.678H59.6732H59.6683H59.6634H59.6585H59.6536H59.6487H59.6438H59.6389H59.634H59.6291H59.6241H59.6192H59.6143H59.6094H59.6045H59.5995H59.5946H59.5897H59.5847H59.5798H59.5749H59.5699H59.565H59.56H59.5551H59.5501H59.5452H59.5402H59.5353H59.5303H59.5254H59.5204H59.5154H59.5105H59.5055H59.5005H59.4955H59.4906H59.4856H59.4806H59.4756H59.4707H59.4657H59.4607H59.4557H59.4507H59.4457H59.4407H59.4357H59.4308H59.4258H59.4208H59.4158H59.4108H59.4058H59.4008H59.3958H59.3908H59.3857H59.3807H59.3757H59.3707H59.3657H59.3607H59.3557H59.3507H59.3457H59.3407H59.3356H59.3306H59.3256H59.3206H59.3156H59.3105H59.3055H59.3005H59.2955H59.2905H59.2854H59.2804H59.2754H59.2704H59.2653H59.2603H59.2553H59.2503H59.2452H59.2402H59.2352H59.2302H59.2251H59.2201H59.2151H59.2101H59.205H59.2H59.195H59.1899H59.1849H59.1799H59.1749H59.1698H59.1648H59.1598H59.1548H59.1497H59.1447H59.1397H59.1347H59.1296H59.1246H59.1196H59.1146H59.1095H59.1045H59.0995H59.0945H59.0895H59.0844H59.0794H59.0744H59.0694H59.0644H59.0593H59.0543H59.0493H59.0443H59.0393H59.0343H59.0293H59.0243H59.0193H59.0143H59.0092H59.0042H58.9992H58.9942H58.9892H58.9842H58.9792H58.9742H58.9692H58.9643H58.9593H58.9543H58.9493H58.9443H58.9393H58.9343H58.9293H58.9244H58.9194H58.9144H58.9094H58.9045H58.8995H58.8945H58.8895H58.8846H58.8796H58.8746H58.8697H58.8647H58.8598H58.8548H58.8499H58.8449H58.84H58.835H58.8301H58.8251H58.8202H58.8153H58.8103H58.8054H58.8005H58.7955H58.7906H58.7857H58.7808H58.7759H58.7709H58.766H58.7611H58.7562H58.7513H58.7464H58.7415H58.7366H58.7317H58.7268H58.722H58.7171H58.7122H58.7073H58.7025H58.6976H58.6927H58.6878H58.683H58.6781H58.6733H58.6684H58.6636H58.6587H58.6539H58.6491H58.6442H58.6394H58.6346H58.6297H58.6249H58.6201H58.6153H58.6105H58.6057H58.6009H58.5961H58.5913H58.5865H58.5817H58.5769H58.5721H58.5674H58.5626H58.5578H58.5531H58.5483H58.5436H58.5388H58.5341H58.5293H58.5246H58.5199H58.5151H58.5104H58.5057H58.501H58.4963H58.4915H58.4868H58.4821H58.4775H58.4728H58.4681H58.4634H58.4587H58.4541H58.4494H58.4447H58.4401H58.4354H58.4308H58.4261H58.4215H58.4169H58.4122H58.4076H58.403H58.3984H58.3938H58.3892H58.3846H58.38H58.3754H58.3708H58.3663H58.3617H58.3571H58.3526H58.348H58.3435H58.3389H58.3344H58.3298H58.3253H58.3208H58.3163H58.3118H58.3073H58.3028H58.2983H58.2938H58.2893H58.2848H58.2804H58.2759H58.2715H58.267H58.2626H58.2581H58.2537H58.2493H58.2448H58.2404H58.236H58.2316H58.2272H58.2228H58.2184H58.2141H58.2097H58.2053H58.201H58.1966H58.1923H58.1879H58.1836H58.1793H58.175H58.1707H58.1664H58.1621H58.1578H58.1535H58.1492H58.1449H58.1407H58.1364H58.1322H58.1279H58.1237H58.1194H58.1152H58.111H58.1068H58.1026H58.0984H58.0942H58.09H58.0859H58.0817H58.0776H58.0734H58.0693H58.0651H58.061H58.0569H58.0528H58.0487H58.0446H58.0405H58.0364H58.0323H58.0282H58.0242H58.0201H58.0161H58.0121H58.008H58.004H58H56.4975L57.7774 96.45C62.2897 99.2247 67.5098 100.969 73.084 100.969C91.5397 100.969 101.625 85.6385 101.625 72.428V72.424V72.42V72.4159V72.4119V72.4079V72.404V72.4V72.396V72.392V72.3881V72.3841V72.3802V72.3763V72.3723V72.3684V72.3645V72.3606V72.3567V72.3528V72.3489V72.3451V72.3412V72.3374V72.3335V72.3297V72.3258V72.322V72.3182V72.3144V72.3106V72.3068V72.303V72.2992V72.2954V72.2917V72.2879V72.2842V72.2804V72.2767V72.273V72.2692V72.2655V72.2618V72.2581V72.2544V72.2507V72.2471V72.2434V72.2397V72.2361V72.2324V72.2288V72.2251V72.2215V72.2179V72.2143V72.2107V72.2071V72.2035V72.1999V72.1963V72.1927V72.1892V72.1856V72.1821V72.1785V72.175V72.1715V72.1679V72.1644V72.1609V72.1574V72.1539V72.1504V72.147V72.1435V72.14V72.1365V72.1331V72.1296V72.1262V72.1228V72.1193V72.1159V72.1125V72.1091V72.1057V72.1023V72.0989V72.0955V72.0922V72.0888V72.0854V72.0821V72.0787V72.0754V72.072V72.0687V72.0654V72.0621V72.0588V72.0555V72.0522V72.0489V72.0456V72.0423V72.039V72.0358V72.0325V72.0293V72.026V72.0228V72.0195V72.0163V72.0131V72.0099V72.0067V72.0035V72.0003V71.9971V71.9939V71.9907V71.9875V71.9844V71.9812V71.978V71.9749V71.9718V71.9686V71.9655V71.9624V71.9592V71.9561V71.953V71.9499V71.9468V71.9437V71.9406V71.9376V71.9345V71.9314V71.9284V71.9253V71.9223V71.9192V71.9162V71.9131V71.9101V71.9071V71.9041V71.9011V71.8981V71.8951V71.8921V71.8891V71.8861V71.8831V71.8801V71.8772V71.8742V71.8713V71.8683V71.8654V71.8624V71.8595V71.8566V71.8536V71.8507V71.8478V71.8449V71.842V71.8391V71.8362V71.8333V71.8304V71.8276V71.8247V71.8218V71.819V71.8161V71.8133V71.8104V71.8076V71.8047V71.8019V71.7991V71.7963V71.7935V71.7906V71.7878V71.785V71.7823V71.7795V71.7767V71.7739V71.7711V71.7684V71.7656V71.7628V71.7601V71.7573V71.7546V71.7518V71.7491V71.7464V71.7436V71.7409V71.7382V71.7355V71.7328V71.7301V71.7274V71.7247V71.722V71.7193V71.7166V71.714V71.7113V71.7086V71.706V71.7033V71.7006V71.698V71.6954V71.6927V71.6901V71.6874V71.6848V71.6822V71.6796V71.677V71.6744V71.6718V71.6692V71.6666V71.664V71.6614V71.6588V71.6562V71.6536V71.6511V71.6485V71.6459V71.6434V71.6408V71.6383V71.6357V71.6332V71.6307V71.6281V71.6256V71.6231V71.6205V71.618V71.6155V71.613V71.6105V71.608V71.6055V71.603V71.6005V71.598V71.5955V71.5931V71.5906V71.5881V71.5856V71.5832V71.5807V71.5783V71.5758V71.5734V71.5709V71.5685V71.566V71.5636V71.5612V71.5588V71.5563V71.5539V71.5515V71.5491V71.5467V71.5443V71.5419V71.5395V71.5371V71.5347V71.5323V71.5299V71.5275V71.5251V71.5228V71.5204V71.518V71.5157V71.5133V71.511V71.5086V71.5062V71.5039V71.5016V71.4992V71.4969V71.4945V71.4922V71.4899V71.4875V71.4852V71.4829V71.4806V71.4783V71.476V71.4737V71.4714V71.4691V71.4668V71.4645V71.4622V71.4599V71.4576V71.4553V71.453V71.4507V71.4485V71.4462V71.4439V71.4417V71.4394V71.4371V71.4349V71.4326V71.4304V71.4281V71.4259V71.4236V71.4214V71.4191V71.4169V71.4147V71.4124V71.4102V71.408V71.4058V71.4035V71.4013V71.3991V71.3969V71.3947V71.3925V71.3903V71.3881V71.3859V71.3837V71.3815V71.3793V71.3771V71.3749V71.3727V71.3705V71.3683V71.3662V71.364V71.3618V71.3596V71.3575V71.3553V71.3531V71.351V71.3488V71.3466V71.3445V71.3423V71.3402V71.338V71.3359V71.3337V71.3316V71.3294V71.3273V71.3252V71.323V71.3209V71.3188V71.3166V71.3145V71.3124V71.3102V71.3081V71.306V71.3039V71.3017V71.2996V71.2975V71.2954V71.2933V71.2912V71.2891V71.287V71.2849V71.2828V71.2807V71.2786V71.2765V71.2744V71.2723V71.2702V71.2681V71.266V71.2639V71.2618V71.2597V71.2594C103.314 69.8884 104.995 68.1878 106.361 66.1442L107.256 64.806L105.817 65.5282C104.429 66.2251 103.201 66.598 101.894 66.8756C103.334 65.6607 104.499 64.172 105.045 62.2565L105.339 61.2233L104.418 61.7754C102.776 62.7589 100.853 63.7214 98.6324 64.0842C96.8123 62.0343 94.0232 61.031 91.264 61.031C85.5412 61.031 80.895 65.6814 80.895 71.4C80.895 71.9623 80.9896 72.4285 81.0772 72.8214C81.0856 72.8593 81.0939 72.8961 81.1019 72.9319C81.1366 73.0865 81.1674 73.2235 81.1909 73.3505ZM61 45.425H101C109.601 45.425 116.575 52.3987 116.575 61V101C116.575 109.601 109.601 116.575 101 116.575H61C52.3987 116.575 45.425 109.601 45.425 101V61C45.425 52.3987 52.3987 45.425 61 45.425Z" stroke="white" stroke-width="0.85" shape-rendering="crispEdges"/>
</g>
<g filter="url(#filter1_bd_226_455)">
<path d="M101 33H61C52.164 33 45 40.164 45 49V89C45 97.836 52.164 105 61 105H101C109.836 105 117 97.836 117 89V49C117 40.164 109.836 33 101 33ZM101.2 59.056C101.2 59.4 101.2 59.74 101.2 60.428C101.2 73.456 91.256 88.544 73.084 88.544C67.6 88.544 62.456 86.828 58 84.088C58.684 84.088 59.716 84.088 60.4 84.088C64.856 84.088 69.316 82.372 72.744 79.972C68.288 79.972 64.86 76.888 63.488 73.116C64.172 73.116 64.86 73.46 65.204 73.46C66.232 73.46 66.92 73.46 67.948 73.116C63.492 72.088 60.064 68.316 60.064 63.516C61.436 64.2 62.808 64.544 64.52 64.888C61.776 62.488 60.064 59.744 60.064 56.316C60.064 54.6 60.408 52.888 61.436 51.516C66.236 57.344 73.436 61.46 81.664 61.8C81.664 61.116 81.32 60.428 81.32 59.4C81.32 53.916 85.776 49.456 91.264 49.456C94.008 49.456 96.748 50.484 98.464 52.54C100.864 52.196 102.92 51.168 104.636 50.14C103.952 52.54 102.236 54.256 100.18 55.624C102.236 55.28 103.952 54.94 106.008 53.908C104.628 55.972 102.916 57.684 101.2 59.056Z" fill="url(#paint1_linear_226_455)"/>
<path d="M81.2512 61.4041C73.3198 60.9465 66.3819 56.9312 61.7255 51.2776L61.4221 50.9092L61.1359 51.2911C60.041 52.7524 59.689 54.5558 59.689 56.316C59.689 59.4421 61.0602 62.006 63.2738 64.2345C62.1624 63.97 61.1953 63.661 60.2313 63.1804L59.689 62.91V63.516C59.689 67.9832 62.5442 71.5825 66.4446 73.0526C66.0669 73.0847 65.677 73.085 65.204 73.085C65.1695 73.085 65.1019 73.0748 64.9816 73.0434C64.9053 73.0235 64.826 73.0002 64.7361 72.9738C64.6866 72.9593 64.6339 72.9438 64.5767 72.9275C64.2728 72.8405 63.8864 72.741 63.488 72.741H62.9526L63.1356 73.2442C64.4315 76.8069 67.5197 79.8042 71.6013 80.2809C68.3684 82.3167 64.3752 83.713 60.4 83.713H60.396H60.392H60.3879H60.3839H60.3799H60.3758H60.3718H60.3677H60.3636H60.3595H60.3554H60.3513H60.3472H60.3431H60.339H60.3349H60.3307H60.3266H60.3224H60.3183H60.3141H60.31H60.3058H60.3016H60.2974H60.2932H60.289H60.2848H60.2806H60.2763H60.2721H60.2678H60.2636H60.2593H60.2551H60.2508H60.2465H60.2422H60.2379H60.2336H60.2293H60.225H60.2207H60.2164H60.2121H60.2077H60.2034H60.199H60.1947H60.1903H60.1859H60.1816H60.1772H60.1728H60.1684H60.164H60.1596H60.1552H60.1507H60.1463H60.1419H60.1374H60.133H60.1285H60.1241H60.1196H60.1152H60.1107H60.1062H60.1017H60.0972H60.0927H60.0882H60.0837H60.0792H60.0747H60.0702H60.0656H60.0611H60.0565H60.052H60.0474H60.0429H60.0383H60.0337H60.0292H60.0246H60.02H60.0154H60.0108H60.0062H60.0016H59.997H59.9924H59.9878H59.9831H59.9785H59.9739H59.9692H59.9646H59.9599H59.9553H59.9506H59.9459H59.9413H59.9366H59.9319H59.9272H59.9225H59.9179H59.9132H59.9085H59.9037H59.899H59.8943H59.8896H59.8849H59.8801H59.8754H59.8707H59.8659H59.8612H59.8564H59.8517H59.8469H59.8422H59.8374H59.8326H59.8279H59.8231H59.8183H59.8135H59.8087H59.8039H59.7991H59.7943H59.7895H59.7847H59.7799H59.7751H59.7703H59.7654H59.7606H59.7558H59.7509H59.7461H59.7413H59.7364H59.7316H59.7267H59.7219H59.717H59.7121H59.7073H59.7024H59.6975H59.6927H59.6878H59.6829H59.678H59.6732H59.6683H59.6634H59.6585H59.6536H59.6487H59.6438H59.6389H59.634H59.6291H59.6241H59.6192H59.6143H59.6094H59.6045H59.5995H59.5946H59.5897H59.5847H59.5798H59.5749H59.5699H59.565H59.56H59.5551H59.5501H59.5452H59.5402H59.5353H59.5303H59.5254H59.5204H59.5154H59.5105H59.5055H59.5005H59.4955H59.4906H59.4856H59.4806H59.4756H59.4707H59.4657H59.4607H59.4557H59.4507H59.4457H59.4407H59.4357H59.4308H59.4258H59.4208H59.4158H59.4108H59.4058H59.4008H59.3958H59.3908H59.3857H59.3807H59.3757H59.3707H59.3657H59.3607H59.3557H59.3507H59.3457H59.3407H59.3356H59.3306H59.3256H59.3206H59.3156H59.3105H59.3055H59.3005H59.2955H59.2905H59.2854H59.2804H59.2754H59.2704H59.2653H59.2603H59.2553H59.2503H59.2452H59.2402H59.2352H59.2302H59.2251H59.2201H59.2151H59.2101H59.205H59.2H59.195H59.1899H59.1849H59.1799H59.1749H59.1698H59.1648H59.1598H59.1548H59.1497H59.1447H59.1397H59.1347H59.1296H59.1246H59.1196H59.1146H59.1095H59.1045H59.0995H59.0945H59.0895H59.0844H59.0794H59.0744H59.0694H59.0644H59.0593H59.0543H59.0493H59.0443H59.0393H59.0343H59.0293H59.0243H59.0193H59.0143H59.0092H59.0042H58.9992H58.9942H58.9892H58.9842H58.9792H58.9742H58.9692H58.9643H58.9593H58.9543H58.9493H58.9443H58.9393H58.9343H58.9293H58.9244H58.9194H58.9144H58.9094H58.9045H58.8995H58.8945H58.8895H58.8846H58.8796H58.8746H58.8697H58.8647H58.8598H58.8548H58.8499H58.8449H58.84H58.835H58.8301H58.8251H58.8202H58.8153H58.8103H58.8054H58.8005H58.7955H58.7906H58.7857H58.7808H58.7759H58.7709H58.766H58.7611H58.7562H58.7513H58.7464H58.7415H58.7366H58.7317H58.7268H58.722H58.7171H58.7122H58.7073H58.7025H58.6976H58.6927H58.6878H58.683H58.6781H58.6733H58.6684H58.6636H58.6587H58.6539H58.6491H58.6442H58.6394H58.6346H58.6297H58.6249H58.6201H58.6153H58.6105H58.6057H58.6009H58.5961H58.5913H58.5865H58.5817H58.5769H58.5721H58.5674H58.5626H58.5578H58.5531H58.5483H58.5436H58.5388H58.5341H58.5293H58.5246H58.5199H58.5151H58.5104H58.5057H58.501H58.4963H58.4915H58.4868H58.4821H58.4775H58.4728H58.4681H58.4634H58.4587H58.4541H58.4494H58.4447H58.4401H58.4354H58.4308H58.4261H58.4215H58.4169H58.4122H58.4076H58.403H58.3984H58.3938H58.3892H58.3846H58.38H58.3754H58.3708H58.3663H58.3617H58.3571H58.3526H58.348H58.3435H58.3389H58.3344H58.3298H58.3253H58.3208H58.3163H58.3118H58.3073H58.3028H58.2983H58.2938H58.2893H58.2848H58.2804H58.2759H58.2715H58.267H58.2626H58.2581H58.2537H58.2493H58.2448H58.2404H58.236H58.2316H58.2272H58.2228H58.2184H58.2141H58.2097H58.2053H58.201H58.1966H58.1923H58.1879H58.1836H58.1793H58.175H58.1707H58.1664H58.1621H58.1578H58.1535H58.1492H58.1449H58.1407H58.1364H58.1322H58.1279H58.1237H58.1194H58.1152H58.111H58.1068H58.1026H58.0984H58.0942H58.09H58.0859H58.0817H58.0776H58.0734H58.0693H58.0651H58.061H58.0569H58.0528H58.0487H58.0446H58.0405H58.0364H58.0323H58.0282H58.0242H58.0201H58.0161H58.0121H58.008H58.004H58H56.6742L57.8036 84.4074C62.3093 87.178 67.5204 88.919 73.084 88.919C91.5064 88.919 101.575 73.617 101.575 60.428V60.424V60.42V60.4159V60.4119V60.4079V60.404V60.4V60.396V60.392V60.3881V60.3841V60.3802V60.3763V60.3723V60.3684V60.3645V60.3606V60.3567V60.3528V60.3489V60.3451V60.3412V60.3374V60.3335V60.3297V60.3258V60.322V60.3182V60.3144V60.3106V60.3068V60.303V60.2992V60.2954V60.2917V60.2879V60.2842V60.2804V60.2767V60.273V60.2692V60.2655V60.2618V60.2581V60.2544V60.2507V60.2471V60.2434V60.2397V60.2361V60.2324V60.2288V60.2251V60.2215V60.2179V60.2143V60.2107V60.2071V60.2035V60.1999V60.1963V60.1927V60.1892V60.1856V60.1821V60.1785V60.175V60.1715V60.1679V60.1644V60.1609V60.1574V60.1539V60.1504V60.147V60.1435V60.14V60.1365V60.1331V60.1296V60.1262V60.1228V60.1193V60.1159V60.1125V60.1091V60.1057V60.1023V60.0989V60.0955V60.0922V60.0888V60.0854V60.0821V60.0787V60.0754V60.072V60.0687V60.0654V60.0621V60.0588V60.0555V60.0522V60.0489V60.0456V60.0423V60.039V60.0358V60.0325V60.0293V60.026V60.0228V60.0195V60.0163V60.0131V60.0099V60.0067V60.0035V60.0003V59.9971V59.9939V59.9907V59.9875V59.9844V59.9812V59.978V59.9749V59.9718V59.9686V59.9655V59.9624V59.9592V59.9561V59.953V59.9499V59.9468V59.9437V59.9406V59.9376V59.9345V59.9314V59.9284V59.9253V59.9223V59.9192V59.9162V59.9131V59.9101V59.9071V59.9041V59.9011V59.8981V59.8951V59.8921V59.8891V59.8861V59.8831V59.8801V59.8772V59.8742V59.8713V59.8683V59.8654V59.8624V59.8595V59.8566V59.8536V59.8507V59.8478V59.8449V59.842V59.8391V59.8362V59.8333V59.8304V59.8276V59.8247V59.8218V59.819V59.8161V59.8133V59.8104V59.8076V59.8047V59.8019V59.7991V59.7963V59.7935V59.7906V59.7878V59.785V59.7823V59.7795V59.7767V59.7739V59.7711V59.7684V59.7656V59.7628V59.7601V59.7573V59.7546V59.7518V59.7491V59.7464V59.7436V59.7409V59.7382V59.7355V59.7328V59.7301V59.7274V59.7247V59.722V59.7193V59.7166V59.714V59.7113V59.7086V59.706V59.7033V59.7006V59.698V59.6954V59.6927V59.6901V59.6874V59.6848V59.6822V59.6796V59.677V59.6744V59.6718V59.6692V59.6666V59.664V59.6614V59.6588V59.6562V59.6536V59.6511V59.6485V59.6459V59.6434V59.6408V59.6383V59.6357V59.6332V59.6307V59.6281V59.6256V59.6231V59.6205V59.618V59.6155V59.613V59.6105V59.608V59.6055V59.603V59.6005V59.598V59.5955V59.5931V59.5906V59.5881V59.5856V59.5832V59.5807V59.5783V59.5758V59.5734V59.5709V59.5685V59.566V59.5636V59.5612V59.5588V59.5563V59.5539V59.5515V59.5491V59.5467V59.5443V59.5419V59.5395V59.5371V59.5347V59.5323V59.5299V59.5275V59.5251V59.5228V59.5204V59.518V59.5157V59.5133V59.511V59.5086V59.5062V59.5039V59.5016V59.4992V59.4969V59.4945V59.4922V59.4899V59.4875V59.4852V59.4829V59.4806V59.4783V59.476V59.4737V59.4714V59.4691V59.4668V59.4645V59.4622V59.4599V59.4576V59.4553V59.453V59.4507V59.4485V59.4462V59.4439V59.4417V59.4394V59.4371V59.4349V59.4326V59.4304V59.4281V59.4259V59.4236V59.4214V59.4191V59.4169V59.4147V59.4124V59.4102V59.408V59.4058V59.4035V59.4013V59.3991V59.3969V59.3947V59.3925V59.3903V59.3881V59.3859V59.3837V59.3815V59.3793V59.3771V59.3749V59.3727V59.3705V59.3683V59.3662V59.364V59.3618V59.3596V59.3575V59.3553V59.3531V59.351V59.3488V59.3466V59.3445V59.3423V59.3402V59.338V59.3359V59.3337V59.3316V59.3294V59.3273V59.3252V59.323V59.3209V59.3188V59.3166V59.3145V59.3124V59.3102V59.3081V59.306V59.3039V59.3017V59.2996V59.2975V59.2954V59.2933V59.2912V59.2891V59.287V59.2849V59.2828V59.2807V59.2786V59.2765V59.2744V59.2723V59.2702V59.2681V59.266V59.2639V59.2618V59.2597V59.2576V59.2556V59.2535V59.2514V59.2493V59.2472V59.2452V59.2431V59.241V59.2389V59.2369V59.2355C103.267 57.8644 104.952 56.1624 106.32 54.1164L107.109 52.9357L105.84 53.5729C104.377 54.3072 103.092 54.6828 101.708 54.9654C103.213 53.7317 104.435 52.2138 104.997 50.2428L105.256 49.3312L104.443 49.8183C102.793 50.807 100.854 51.7771 98.6132 52.138C96.8049 50.0872 94.0214 49.081 91.264 49.081C85.5688 49.081 80.945 53.709 80.945 59.4C80.945 59.9566 81.0386 60.4184 81.126 60.8106C81.1345 60.8487 81.1428 60.8858 81.151 60.9221C81.1911 61.101 81.2264 61.2581 81.2512 61.4041ZM61 33.375H101C109.629 33.375 116.625 40.3711 116.625 49V89C116.625 97.6289 109.629 104.625 101 104.625H61C52.3711 104.625 45.375 97.6289 45.375 89V49C45.375 40.3711 52.3711 33.375 61 33.375Z" stroke="url(#paint2_linear_226_455)" stroke-opacity="0.72" stroke-width="0.75"/>
</g>
<defs>
<filter id="filter0_df_226_455" x="0" y="0" width="162" height="162" filterUnits="userSpaceOnUse" color-interpolation-filters="sRGB">
<feFlood flood-opacity="0" result="BackgroundImageFix"/>
<feColorMatrix in="SourceAlpha" type="matrix" values="0 0 0 0 0 0 0 0 0 0 0 0 0 0 0 0 0 0 127 0" result="hardAlpha"/>
<feOffset dy="11"/>
<feGaussianBlur stdDeviation="14.5"/>
<feComposite in2="hardAlpha" operator="out"/>
<feColorMatrix type="matrix" values="0 0 0 0 0.00651014 0 0 0 0 0.397388 0 0 0 0 0.520824 0 0 0 0.12 0"/>
<feBlend mode="normal" in2="BackgroundImageFix" result="effect1_dropShadow_226_455"/>
<feBlend mode="normal" in="SourceGraphic" in2="effect1_dropShadow_226_455" result="shape"/>
<feGaussianBlur stdDeviation="22.5" result="effect2_foregroundBlur_226_455"/>
</filter>
<filter id="filter1_bd_226_455" x="-25" y="-37" width="212" height="212" filterUnits="userSpaceOnUse" color-interpolation-filters="sRGB">
<feFlood flood-opacity="0" result="BackgroundImageFix"/>
<feGaussianBlur in="BackgroundImage" stdDeviation="35"/>
<feComposite in2="SourceAlpha" operator="in" result="effect1_backgroundBlur_226_455"/>
<feColorMatrix in="SourceAlpha" type="matrix" values="0 0 0 0 0 0 0 0 0 0 0 0 0 0 0 0 0 0 127 0" result="hardAlpha"/>
<feOffset dy="11"/>
<feGaussianBlur stdDeviation="14.5"/>
<feComposite in2="hardAlpha" operator="out"/>
<feColorMatrix type="matrix" values="0 0 0 0 0.00651014 0 0 0 0 0.397388 0 0 0 0 0.520824 0 0 0 0.12 0"/>
<feBlend mode="normal" in2="effect1_backgroundBlur_226_455" result="effect2_dropShadow_226_455"/>
<feBlend mode="normal" in="SourceGraphic" in2="effect2_dropShadow_226_455" result="shape"/>
</filter>
<linearGradient id="paint0_linear_226_455" x1="81" y1="45" x2="81" y2="117" gradientUnits="userSpaceOnUse">
<stop stop-color="#00D1FF"/>
<stop offset="1" stop-color="#39A6F5"/>
</linearGradient>
<linearGradient id="paint1_linear_226_455" x1="81" y1="33" x2="81" y2="105" gradientUnits="userSpaceOnUse">
<stop stop-color="#00D1FF"/>
<stop offset="1" stop-color="#39A6F5"/>
</linearGradient>
<linearGradient id="paint2_linear_226_455" x1="81" y1="33" x2="81" y2="105" gradientUnits="userSpaceOnUse">
<stop stop-color="white"/>
<stop offset="1" stop-color="#F1F5F8"/>
</linearGradient>
</defs>
</svg>
