<svg width="526" height="230" viewBox="0 0 526 230" fill="none" xmlns="http://www.w3.org/2000/svg">
<g filter="url(#filter0_bd_617_1497)">
<g clip-path="url(#clip0_617_1497)">
<rect x="44" y="42" width="438" height="132" rx="32" fill="#4EC33D" fill-opacity="0.92" shape-rendering="crispEdges"/>
<path d="M436.939 84.9393C436.354 85.5251 436.354 86.4749 436.939 87.0607C437.525 87.6464 438.475 87.6464 439.061 87.0607L446 80.1213L452.939 87.0607C453.525 87.6465 454.475 87.6465 455.061 87.0607C455.646 86.4749 455.646 85.5251 455.061 84.9393L448.121 78L455.061 71.0607C455.646 70.4749 455.646 69.5251 455.061 68.9393C454.475 68.3536 453.525 68.3536 452.939 68.9393L446 75.8787L439.061 68.9393C438.475 68.3536 437.525 68.3536 436.939 68.9393C436.354 69.5251 436.354 70.4749 436.939 71.0607L443.879 78L436.939 84.9393Z" fill="white"/>
<circle cx="64.6075" cy="108.295" r="9.29547" fill="#2C7721"/>
<circle cx="124.099" cy="146.717" r="3.71819" fill="#2C7721"/>
<path d="M123.444 110.025C126.497 117.548 122.874 126.122 115.351 129.175C114.521 129.512 113.678 129.768 112.832 129.946C108.12 130.937 102.859 132.284 100.338 136.386C97.3951 141.174 99.0036 147.393 103.35 150.957C112.015 158.064 119.027 167.432 123.383 178.619C136.906 213.348 119.715 252.464 84.9856 265.987C50.2564 279.51 11.1401 262.319 -2.38289 227.59C-15.9059 192.861 1.28512 153.744 36.0144 140.221C51.1834 134.315 67.1894 134.268 81.5341 138.982C86.7299 140.69 92.6536 139.072 95.5174 134.413L96.5823 132.68C98.694 129.244 97.7172 124.819 96.2006 121.082C93.1473 113.559 96.7707 104.985 104.294 101.932C111.817 98.8789 120.391 102.502 123.444 110.025Z" fill="#2C7721"/>
<path d="M195.964 99H192.088L180.426 81.354V99H176.55V75.336H180.426L192.088 92.948V75.336H195.964V99ZM213.77 75.37V78.532H203.74V85.502H211.56V88.664H203.74V99H199.864V75.37H213.77ZM231.438 75.37V78.532H225.148V99H221.272V78.532H214.948V75.37H231.438ZM266.703 75.37V99H262.827V82.816L255.619 99H252.933L245.691 82.816V99H241.815V75.37H245.997L254.293 93.9L262.555 75.37H266.703ZM272.58 77.784C271.877 77.784 271.288 77.546 270.812 77.07C270.336 76.594 270.098 76.0047 270.098 75.302C270.098 74.5993 270.336 74.01 270.812 73.534C271.288 73.058 271.877 72.82 272.58 72.82C273.26 72.82 273.838 73.058 274.314 73.534C274.79 74.01 275.028 74.5993 275.028 75.302C275.028 76.0047 274.79 76.594 274.314 77.07C273.838 77.546 273.26 77.784 272.58 77.784ZM274.484 80.266V99H270.608V80.266H274.484ZM287.835 79.96C289.308 79.96 290.623 80.266 291.779 80.878C292.957 81.49 293.875 82.3967 294.533 83.598C295.19 84.7993 295.519 86.25 295.519 87.95V99H291.677V88.528C291.677 86.8507 291.257 85.57 290.419 84.686C289.58 83.7793 288.435 83.326 286.985 83.326C285.534 83.326 284.378 83.7793 283.517 84.686C282.678 85.57 282.259 86.8507 282.259 88.528V99H278.383V80.266H282.259V82.408C282.893 81.6373 283.698 81.0367 284.673 80.606C285.67 80.1753 286.724 79.96 287.835 79.96ZM303.795 83.428V93.798C303.795 94.5007 303.953 95.0107 304.271 95.328C304.611 95.6227 305.177 95.77 305.971 95.77H308.351V99H305.291C303.545 99 302.208 98.592 301.279 97.776C300.349 96.96 299.885 95.634 299.885 93.798V83.428H297.675V80.266H299.885V75.608H303.795V80.266H308.351V83.428H303.795ZM327.903 89.174C327.903 89.8767 327.858 90.5113 327.767 91.078H313.453C313.566 92.574 314.122 93.7753 315.119 94.682C316.116 95.5887 317.34 96.042 318.791 96.042C320.876 96.042 322.35 95.1693 323.211 93.424H327.393C326.826 95.1467 325.795 96.5633 324.299 97.674C322.826 98.762 320.99 99.306 318.791 99.306C317 99.306 315.391 98.9093 313.963 98.116C312.558 97.3 311.447 96.1667 310.631 94.716C309.838 93.2427 309.441 91.5427 309.441 89.616C309.441 87.6893 309.826 86.0007 310.597 84.55C311.39 83.0767 312.49 81.9433 313.895 81.15C315.323 80.3567 316.955 79.96 318.791 79.96C320.559 79.96 322.134 80.3453 323.517 81.116C324.9 81.8867 325.976 82.9747 326.747 84.38C327.518 85.7627 327.903 87.3607 327.903 89.174ZM323.857 87.95C323.834 86.522 323.324 85.3773 322.327 84.516C321.33 83.6547 320.094 83.224 318.621 83.224C317.284 83.224 316.139 83.6547 315.187 84.516C314.235 85.3547 313.668 86.4993 313.487 87.95H323.857ZM329.235 89.548C329.235 87.6667 329.621 86.0007 330.391 84.55C331.185 83.0993 332.25 81.9773 333.587 81.184C334.947 80.368 336.455 79.96 338.109 79.96C339.333 79.96 340.535 80.232 341.713 80.776C342.915 81.2973 343.867 82 344.569 82.884V73.84H348.479V99H344.569V96.178C343.935 97.0847 343.051 97.8327 341.917 98.422C340.807 99.0113 339.526 99.306 338.075 99.306C336.443 99.306 334.947 98.898 333.587 98.082C332.25 97.2433 331.185 96.0873 330.391 94.614C329.621 93.118 329.235 91.4293 329.235 89.548ZM344.569 89.616C344.569 88.324 344.297 87.202 343.753 86.25C343.232 85.298 342.541 84.5727 341.679 84.074C340.818 83.5753 339.889 83.326 338.891 83.326C337.894 83.326 336.965 83.5753 336.103 84.074C335.242 84.55 334.539 85.264 333.995 86.216C333.474 87.1453 333.213 88.256 333.213 89.548C333.213 90.84 333.474 91.9733 333.995 92.948C334.539 93.9227 335.242 94.6707 336.103 95.192C336.987 95.6907 337.917 95.94 338.891 95.94C339.889 95.94 340.818 95.6907 341.679 95.192C342.541 94.6933 343.232 93.968 343.753 93.016C344.297 92.0413 344.569 90.908 344.569 89.616Z" fill="white"/>
<path d="M181.91 115.242L178.732 121.318V125H177.458V121.318L174.266 115.242H175.68L178.088 120.184L180.496 115.242H181.91ZM186.88 125.126C186.161 125.126 185.508 124.963 184.92 124.636C184.341 124.309 183.884 123.847 183.548 123.25C183.221 122.643 183.058 121.943 183.058 121.15C183.058 120.366 183.226 119.675 183.562 119.078C183.907 118.471 184.374 118.009 184.962 117.692C185.55 117.365 186.208 117.202 186.936 117.202C187.664 117.202 188.322 117.365 188.91 117.692C189.498 118.009 189.96 118.467 190.296 119.064C190.641 119.661 190.814 120.357 190.814 121.15C190.814 121.943 190.636 122.643 190.282 123.25C189.936 123.847 189.465 124.309 188.868 124.636C188.27 124.963 187.608 125.126 186.88 125.126ZM186.88 124.006C187.337 124.006 187.766 123.899 188.168 123.684C188.569 123.469 188.891 123.147 189.134 122.718C189.386 122.289 189.512 121.766 189.512 121.15C189.512 120.534 189.39 120.011 189.148 119.582C188.905 119.153 188.588 118.835 188.196 118.63C187.804 118.415 187.379 118.308 186.922 118.308C186.455 118.308 186.026 118.415 185.634 118.63C185.251 118.835 184.943 119.153 184.71 119.582C184.476 120.011 184.36 120.534 184.36 121.15C184.36 121.775 184.472 122.303 184.696 122.732C184.929 123.161 185.237 123.483 185.62 123.698C186.002 123.903 186.422 124.006 186.88 124.006ZM199.573 117.328V125H198.299V123.866C198.056 124.258 197.716 124.566 197.277 124.79C196.848 125.005 196.372 125.112 195.849 125.112C195.252 125.112 194.715 124.991 194.239 124.748C193.763 124.496 193.385 124.123 193.105 123.628C192.834 123.133 192.699 122.531 192.699 121.822V117.328H193.959V121.654C193.959 122.41 194.15 122.993 194.533 123.404C194.916 123.805 195.438 124.006 196.101 124.006C196.782 124.006 197.319 123.796 197.711 123.376C198.103 122.956 198.299 122.345 198.299 121.542V117.328H199.573ZM208.732 125.126C208.144 125.126 207.617 125.028 207.15 124.832C206.684 124.627 206.315 124.347 206.044 123.992C205.774 123.628 205.624 123.213 205.596 122.746H206.912C206.95 123.129 207.127 123.441 207.444 123.684C207.771 123.927 208.196 124.048 208.718 124.048C209.204 124.048 209.586 123.941 209.866 123.726C210.146 123.511 210.286 123.241 210.286 122.914C210.286 122.578 210.137 122.331 209.838 122.172C209.54 122.004 209.078 121.841 208.452 121.682C207.883 121.533 207.416 121.383 207.052 121.234C206.698 121.075 206.39 120.847 206.128 120.548C205.876 120.24 205.75 119.839 205.75 119.344C205.75 118.952 205.867 118.593 206.1 118.266C206.334 117.939 206.665 117.683 207.094 117.496C207.524 117.3 208.014 117.202 208.564 117.202C209.414 117.202 210.1 117.417 210.622 117.846C211.145 118.275 211.425 118.863 211.462 119.61H210.188C210.16 119.209 209.997 118.887 209.698 118.644C209.409 118.401 209.017 118.28 208.522 118.28C208.065 118.28 207.701 118.378 207.43 118.574C207.16 118.77 207.024 119.027 207.024 119.344C207.024 119.596 207.104 119.806 207.262 119.974C207.43 120.133 207.636 120.263 207.878 120.366C208.13 120.459 208.476 120.567 208.914 120.688C209.465 120.837 209.913 120.987 210.258 121.136C210.604 121.276 210.898 121.491 211.14 121.78C211.392 122.069 211.523 122.447 211.532 122.914C211.532 123.334 211.416 123.712 211.182 124.048C210.949 124.384 210.618 124.65 210.188 124.846C209.768 125.033 209.283 125.126 208.732 125.126ZM220.415 117.328V125H219.141V123.866C218.898 124.258 218.557 124.566 218.119 124.79C217.689 125.005 217.213 125.112 216.691 125.112C216.093 125.112 215.557 124.991 215.081 124.748C214.605 124.496 214.227 124.123 213.947 123.628C213.676 123.133 213.541 122.531 213.541 121.822V117.328H214.801V121.654C214.801 122.41 214.992 122.993 215.375 123.404C215.757 123.805 216.28 124.006 216.943 124.006C217.624 124.006 218.161 123.796 218.553 123.376C218.945 122.956 219.141 122.345 219.141 121.542V117.328H220.415ZM222.37 121.15C222.37 120.357 222.529 119.666 222.846 119.078C223.163 118.481 223.602 118.019 224.162 117.692C224.731 117.365 225.38 117.202 226.108 117.202C227.051 117.202 227.825 117.431 228.432 117.888C229.048 118.345 229.454 118.98 229.65 119.792H228.278C228.147 119.325 227.891 118.957 227.508 118.686C227.135 118.415 226.668 118.28 226.108 118.28C225.38 118.28 224.792 118.532 224.344 119.036C223.896 119.531 223.672 120.235 223.672 121.15C223.672 122.074 223.896 122.788 224.344 123.292C224.792 123.796 225.38 124.048 226.108 124.048C226.668 124.048 227.135 123.917 227.508 123.656C227.881 123.395 228.138 123.021 228.278 122.536H229.65C229.445 123.32 229.034 123.95 228.418 124.426C227.802 124.893 227.032 125.126 226.108 125.126C225.38 125.126 224.731 124.963 224.162 124.636C223.602 124.309 223.163 123.847 222.846 123.25C222.529 122.653 222.37 121.953 222.37 121.15ZM231.154 121.15C231.154 120.357 231.312 119.666 231.63 119.078C231.947 118.481 232.386 118.019 232.946 117.692C233.515 117.365 234.164 117.202 234.892 117.202C235.834 117.202 236.609 117.431 237.216 117.888C237.832 118.345 238.238 118.98 238.434 119.792H237.062C236.931 119.325 236.674 118.957 236.292 118.686C235.918 118.415 235.452 118.28 234.892 118.28C234.164 118.28 233.576 118.532 233.128 119.036C232.68 119.531 232.456 120.235 232.456 121.15C232.456 122.074 232.68 122.788 233.128 123.292C233.576 123.796 234.164 124.048 234.892 124.048C235.452 124.048 235.918 123.917 236.292 123.656C236.665 123.395 236.922 123.021 237.062 122.536H238.434C238.228 123.32 237.818 123.95 237.202 124.426C236.586 124.893 235.816 125.126 234.892 125.126C234.164 125.126 233.515 124.963 232.946 124.636C232.386 124.309 231.947 123.847 231.63 123.25C231.312 122.653 231.154 121.953 231.154 121.15ZM247.414 120.87C247.414 121.113 247.4 121.369 247.372 121.64H241.24C241.286 122.396 241.543 122.989 242.01 123.418C242.486 123.838 243.06 124.048 243.732 124.048C244.282 124.048 244.74 123.922 245.104 123.67C245.477 123.409 245.738 123.063 245.888 122.634H247.26C247.054 123.371 246.644 123.973 246.028 124.44C245.412 124.897 244.646 125.126 243.732 125.126C243.004 125.126 242.35 124.963 241.772 124.636C241.202 124.309 240.754 123.847 240.428 123.25C240.101 122.643 239.938 121.943 239.938 121.15C239.938 120.357 240.096 119.661 240.414 119.064C240.731 118.467 241.174 118.009 241.744 117.692C242.322 117.365 242.985 117.202 243.732 117.202C244.46 117.202 245.104 117.361 245.664 117.678C246.224 117.995 246.653 118.434 246.952 118.994C247.26 119.545 247.414 120.17 247.414 120.87ZM246.098 120.604C246.098 120.119 245.99 119.703 245.776 119.358C245.561 119.003 245.267 118.737 244.894 118.56C244.53 118.373 244.124 118.28 243.676 118.28C243.032 118.28 242.481 118.485 242.024 118.896C241.576 119.307 241.319 119.876 241.254 120.604H246.098ZM252.091 125.126C251.503 125.126 250.976 125.028 250.509 124.832C250.043 124.627 249.674 124.347 249.403 123.992C249.133 123.628 248.983 123.213 248.955 122.746H250.271C250.309 123.129 250.486 123.441 250.803 123.684C251.13 123.927 251.555 124.048 252.077 124.048C252.563 124.048 252.945 123.941 253.225 123.726C253.505 123.511 253.645 123.241 253.645 122.914C253.645 122.578 253.496 122.331 253.197 122.172C252.899 122.004 252.437 121.841 251.811 121.682C251.242 121.533 250.775 121.383 250.411 121.234C250.057 121.075 249.749 120.847 249.487 120.548C249.235 120.24 249.109 119.839 249.109 119.344C249.109 118.952 249.226 118.593 249.459 118.266C249.693 117.939 250.024 117.683 250.453 117.496C250.883 117.3 251.373 117.202 251.923 117.202C252.773 117.202 253.459 117.417 253.981 117.846C254.504 118.275 254.784 118.863 254.821 119.61H253.547C253.519 119.209 253.356 118.887 253.057 118.644C252.768 118.401 252.376 118.28 251.881 118.28C251.424 118.28 251.06 118.378 250.789 118.574C250.519 118.77 250.383 119.027 250.383 119.344C250.383 119.596 250.463 119.806 250.621 119.974C250.789 120.133 250.995 120.263 251.237 120.366C251.489 120.459 251.835 120.567 252.273 120.688C252.824 120.837 253.272 120.987 253.617 121.136C253.963 121.276 254.257 121.491 254.499 121.78C254.751 122.069 254.882 122.447 254.891 122.914C254.891 123.334 254.775 123.712 254.541 124.048C254.308 124.384 253.977 124.65 253.547 124.846C253.127 125.033 252.642 125.126 252.091 125.126ZM259.686 125.126C259.098 125.126 258.57 125.028 258.104 124.832C257.637 124.627 257.268 124.347 256.998 123.992C256.727 123.628 256.578 123.213 256.55 122.746H257.866C257.903 123.129 258.08 123.441 258.398 123.684C258.724 123.927 259.149 124.048 259.672 124.048C260.157 124.048 260.54 123.941 260.82 123.726C261.1 123.511 261.24 123.241 261.24 122.914C261.24 122.578 261.09 122.331 260.792 122.172C260.493 122.004 260.031 121.841 259.406 121.682C258.836 121.533 258.37 121.383 258.006 121.234C257.651 121.075 257.343 120.847 257.082 120.548C256.83 120.24 256.704 119.839 256.704 119.344C256.704 118.952 256.82 118.593 257.054 118.266C257.287 117.939 257.618 117.683 258.048 117.496C258.477 117.3 258.967 117.202 259.518 117.202C260.367 117.202 261.053 117.417 261.576 117.846C262.098 118.275 262.378 118.863 262.416 119.61H261.142C261.114 119.209 260.95 118.887 260.652 118.644C260.362 118.401 259.97 118.28 259.476 118.28C259.018 118.28 258.654 118.378 258.384 118.574C258.113 118.77 257.978 119.027 257.978 119.344C257.978 119.596 258.057 119.806 258.216 119.974C258.384 120.133 258.589 120.263 258.832 120.366C259.084 120.459 259.429 120.567 259.868 120.688C260.418 120.837 260.866 120.987 261.212 121.136C261.557 121.276 261.851 121.491 262.094 121.78C262.346 122.069 262.476 122.447 262.486 122.914C262.486 123.334 262.369 123.712 262.136 124.048C261.902 124.384 261.571 124.65 261.142 124.846C260.722 125.033 260.236 125.126 259.686 125.126ZM267.686 118.378H266.076V125H264.802V118.378H263.808V117.328H264.802V116.782C264.802 115.923 265.022 115.298 265.46 114.906C265.908 114.505 266.622 114.304 267.602 114.304V115.368C267.042 115.368 266.646 115.48 266.412 115.704C266.188 115.919 266.076 116.278 266.076 116.782V117.328H267.686V118.378ZM276.256 117.328V125H274.982V123.866C274.739 124.258 274.398 124.566 273.96 124.79C273.53 125.005 273.054 125.112 272.532 125.112C271.934 125.112 271.398 124.991 270.922 124.748C270.446 124.496 270.068 124.123 269.788 123.628C269.517 123.133 269.382 122.531 269.382 121.822V117.328H270.642V121.654C270.642 122.41 270.833 122.993 271.216 123.404C271.598 123.805 272.121 124.006 272.784 124.006C273.465 124.006 274.002 123.796 274.394 123.376C274.786 122.956 274.982 122.345 274.982 121.542V117.328H276.256ZM279.961 114.64V125H278.687V114.64H279.961ZM283.686 114.64V125H282.412V114.64H283.686ZM292.745 117.328L288.125 128.612H286.809L288.321 124.916L285.227 117.328H286.641L289.049 123.544L291.429 117.328H292.745ZM305.71 118.07C305.44 117.501 305.048 117.062 304.534 116.754C304.021 116.437 303.424 116.278 302.742 116.278C302.061 116.278 301.445 116.437 300.894 116.754C300.353 117.062 299.924 117.51 299.606 118.098C299.298 118.677 299.144 119.349 299.144 120.114C299.144 120.879 299.298 121.551 299.606 122.13C299.924 122.709 300.353 123.157 300.894 123.474C301.445 123.782 302.061 123.936 302.742 123.936C303.694 123.936 304.478 123.651 305.094 123.082C305.71 122.513 306.07 121.743 306.172 120.772H302.28V119.736H307.53V120.716C307.456 121.519 307.204 122.256 306.774 122.928C306.345 123.591 305.78 124.118 305.08 124.51C304.38 124.893 303.601 125.084 302.742 125.084C301.837 125.084 301.011 124.874 300.264 124.454C299.518 124.025 298.925 123.432 298.486 122.676C298.057 121.92 297.842 121.066 297.842 120.114C297.842 119.162 298.057 118.308 298.486 117.552C298.925 116.787 299.518 116.194 300.264 115.774C301.011 115.345 301.837 115.13 302.742 115.13C303.778 115.13 304.693 115.387 305.486 115.9C306.289 116.413 306.872 117.137 307.236 118.07H305.71ZM316.495 120.87C316.495 121.113 316.481 121.369 316.453 121.64H310.321C310.368 122.396 310.624 122.989 311.091 123.418C311.567 123.838 312.141 124.048 312.813 124.048C313.364 124.048 313.821 123.922 314.185 123.67C314.558 123.409 314.82 123.063 314.969 122.634H316.341C316.136 123.371 315.725 123.973 315.109 124.44C314.493 124.897 313.728 125.126 312.813 125.126C312.085 125.126 311.432 124.963 310.853 124.636C310.284 124.309 309.836 123.847 309.509 123.25C309.182 122.643 309.019 121.943 309.019 121.15C309.019 120.357 309.178 119.661 309.495 119.064C309.812 118.467 310.256 118.009 310.825 117.692C311.404 117.365 312.066 117.202 312.813 117.202C313.541 117.202 314.185 117.361 314.745 117.678C315.305 117.995 315.734 118.434 316.033 118.994C316.341 119.545 316.495 120.17 316.495 120.87ZM315.179 120.604C315.179 120.119 315.072 119.703 314.857 119.358C314.642 119.003 314.348 118.737 313.975 118.56C313.611 118.373 313.205 118.28 312.757 118.28C312.113 118.28 311.562 118.485 311.105 118.896C310.657 119.307 310.4 119.876 310.335 120.604H315.179ZM322.195 117.188C323.128 117.188 323.884 117.473 324.463 118.042C325.041 118.602 325.331 119.414 325.331 120.478V125H324.071V120.66C324.071 119.895 323.879 119.311 323.497 118.91C323.114 118.499 322.591 118.294 321.929 118.294C321.257 118.294 320.72 118.504 320.319 118.924C319.927 119.344 319.731 119.955 319.731 120.758V125H318.457V117.328H319.731V118.42C319.983 118.028 320.323 117.725 320.753 117.51C321.191 117.295 321.672 117.188 322.195 117.188ZM334.692 120.87C334.692 121.113 334.678 121.369 334.65 121.64H328.518C328.564 122.396 328.821 122.989 329.288 123.418C329.764 123.838 330.338 124.048 331.01 124.048C331.56 124.048 332.018 123.922 332.382 123.67C332.755 123.409 333.016 123.063 333.166 122.634H334.538C334.332 123.371 333.922 123.973 333.306 124.44C332.69 124.897 331.924 125.126 331.01 125.126C330.282 125.126 329.628 124.963 329.05 124.636C328.48 124.309 328.032 123.847 327.706 123.25C327.379 122.643 327.216 121.943 327.216 121.15C327.216 120.357 327.374 119.661 327.692 119.064C328.009 118.467 328.452 118.009 329.022 117.692C329.6 117.365 330.263 117.202 331.01 117.202C331.738 117.202 332.382 117.361 332.942 117.678C333.502 117.995 333.931 118.434 334.23 118.994C334.538 119.545 334.692 120.17 334.692 120.87ZM333.376 120.604C333.376 120.119 333.268 119.703 333.054 119.358C332.839 119.003 332.545 118.737 332.172 118.56C331.808 118.373 331.402 118.28 330.954 118.28C330.31 118.28 329.759 118.485 329.302 118.896C328.854 119.307 328.597 119.876 328.532 120.604H333.376ZM337.927 118.574C338.151 118.135 338.469 117.795 338.879 117.552C339.299 117.309 339.808 117.188 340.405 117.188V118.504H340.069C338.641 118.504 337.927 119.279 337.927 120.828V125H336.653V117.328H337.927V118.574ZM341.68 121.136C341.68 120.352 341.839 119.666 342.156 119.078C342.473 118.481 342.907 118.019 343.458 117.692C344.018 117.365 344.639 117.202 345.32 117.202C345.992 117.202 346.575 117.347 347.07 117.636C347.565 117.925 347.933 118.289 348.176 118.728V117.328H349.464V125H348.176V123.572C347.924 124.02 347.546 124.393 347.042 124.692C346.547 124.981 345.969 125.126 345.306 125.126C344.625 125.126 344.009 124.958 343.458 124.622C342.907 124.286 342.473 123.815 342.156 123.208C341.839 122.601 341.68 121.911 341.68 121.136ZM348.176 121.15C348.176 120.571 348.059 120.067 347.826 119.638C347.593 119.209 347.275 118.882 346.874 118.658C346.482 118.425 346.048 118.308 345.572 118.308C345.096 118.308 344.662 118.42 344.27 118.644C343.878 118.868 343.565 119.195 343.332 119.624C343.099 120.053 342.982 120.557 342.982 121.136C342.982 121.724 343.099 122.237 343.332 122.676C343.565 123.105 343.878 123.437 344.27 123.67C344.662 123.894 345.096 124.006 345.572 124.006C346.048 124.006 346.482 123.894 346.874 123.67C347.275 123.437 347.593 123.105 347.826 122.676C348.059 122.237 348.176 121.729 348.176 121.15ZM353.451 118.378V122.9C353.451 123.273 353.53 123.539 353.689 123.698C353.848 123.847 354.123 123.922 354.515 123.922H355.453V125H354.305C353.596 125 353.064 124.837 352.709 124.51C352.354 124.183 352.177 123.647 352.177 122.9V118.378H351.183V117.328H352.177V115.396H353.451V117.328H355.453V118.378H353.451ZM364.277 120.87C364.277 121.113 364.263 121.369 364.235 121.64H358.103C358.149 122.396 358.406 122.989 358.873 123.418C359.349 123.838 359.923 124.048 360.595 124.048C361.145 124.048 361.603 123.922 361.967 123.67C362.34 123.409 362.601 123.063 362.751 122.634H364.123C363.917 123.371 363.507 123.973 362.891 124.44C362.275 124.897 361.509 125.126 360.595 125.126C359.867 125.126 359.213 124.963 358.635 124.636C358.065 124.309 357.617 123.847 357.291 123.25C356.964 122.643 356.801 121.943 356.801 121.15C356.801 120.357 356.959 119.661 357.277 119.064C357.594 118.467 358.037 118.009 358.607 117.692C359.185 117.365 359.848 117.202 360.595 117.202C361.323 117.202 361.967 117.361 362.527 117.678C363.087 117.995 363.516 118.434 363.815 118.994C364.123 119.545 364.277 120.17 364.277 120.87ZM362.961 120.604C362.961 120.119 362.853 119.703 362.639 119.358C362.424 119.003 362.13 118.737 361.757 118.56C361.393 118.373 360.987 118.28 360.539 118.28C359.895 118.28 359.344 118.485 358.887 118.896C358.439 119.307 358.182 119.876 358.117 120.604H362.961ZM365.762 121.136C365.762 120.352 365.921 119.666 366.238 119.078C366.555 118.481 366.989 118.019 367.54 117.692C368.1 117.365 368.725 117.202 369.416 117.202C370.013 117.202 370.569 117.342 371.082 117.622C371.595 117.893 371.987 118.252 372.258 118.7V114.64H373.546V125H372.258V123.558C372.006 124.015 371.633 124.393 371.138 124.692C370.643 124.981 370.065 125.126 369.402 125.126C368.721 125.126 368.1 124.958 367.54 124.622C366.989 124.286 366.555 123.815 366.238 123.208C365.921 122.601 365.762 121.911 365.762 121.136ZM372.258 121.15C372.258 120.571 372.141 120.067 371.908 119.638C371.675 119.209 371.357 118.882 370.956 118.658C370.564 118.425 370.13 118.308 369.654 118.308C369.178 118.308 368.744 118.42 368.352 118.644C367.96 118.868 367.647 119.195 367.414 119.624C367.181 120.053 367.064 120.557 367.064 121.136C367.064 121.724 367.181 122.237 367.414 122.676C367.647 123.105 367.96 123.437 368.352 123.67C368.744 123.894 369.178 124.006 369.654 124.006C370.13 124.006 370.564 123.894 370.956 123.67C371.357 123.437 371.675 123.105 371.908 122.676C372.141 122.237 372.258 121.729 372.258 121.15ZM387.664 125H386.39L381.266 117.23V125H379.992V115.228H381.266L386.39 122.984V115.228H387.664V125ZM395.631 115.242V116.278H391.389V119.568H394.833V120.604H391.389V125H390.115V115.242H395.631ZM403.456 115.242V116.278H400.796V125H399.522V116.278H396.848V115.242H403.456ZM178.2 136.378H176.59V143H175.316V136.378H174.322V135.328H175.316V134.782C175.316 133.923 175.535 133.298 175.974 132.906C176.422 132.505 177.136 132.304 178.116 132.304V133.368C177.556 133.368 177.159 133.48 176.926 133.704C176.702 133.919 176.59 134.278 176.59 134.782V135.328H178.2V136.378ZM183.311 143.126C182.593 143.126 181.939 142.963 181.351 142.636C180.773 142.309 180.315 141.847 179.979 141.25C179.653 140.643 179.489 139.943 179.489 139.15C179.489 138.366 179.657 137.675 179.993 137.078C180.339 136.471 180.805 136.009 181.393 135.692C181.981 135.365 182.639 135.202 183.367 135.202C184.095 135.202 184.753 135.365 185.341 135.692C185.929 136.009 186.391 136.467 186.727 137.064C187.073 137.661 187.245 138.357 187.245 139.15C187.245 139.943 187.068 140.643 186.713 141.25C186.368 141.847 185.897 142.309 185.299 142.636C184.702 142.963 184.039 143.126 183.311 143.126ZM183.311 142.006C183.769 142.006 184.198 141.899 184.599 141.684C185.001 141.469 185.323 141.147 185.565 140.718C185.817 140.289 185.943 139.766 185.943 139.15C185.943 138.534 185.822 138.011 185.579 137.582C185.337 137.153 185.019 136.835 184.627 136.63C184.235 136.415 183.811 136.308 183.353 136.308C182.887 136.308 182.457 136.415 182.065 136.63C181.683 136.835 181.375 137.153 181.141 137.582C180.908 138.011 180.791 138.534 180.791 139.15C180.791 139.775 180.903 140.303 181.127 140.732C181.361 141.161 181.669 141.483 182.051 141.698C182.434 141.903 182.854 142.006 183.311 142.006ZM190.475 136.574C190.699 136.135 191.016 135.795 191.427 135.552C191.847 135.309 192.355 135.188 192.953 135.188V136.504H192.617C191.189 136.504 190.475 137.279 190.475 138.828V143H189.201V135.328H190.475V136.574ZM200.27 136.378V140.9C200.27 141.273 200.349 141.539 200.508 141.698C200.666 141.847 200.942 141.922 201.334 141.922H202.272V143H201.124C200.414 143 199.882 142.837 199.528 142.51C199.173 142.183 198.996 141.647 198.996 140.9V136.378H198.002V135.328H198.996V133.396H200.27V135.328H202.272V136.378H200.27ZM207.903 135.188C208.482 135.188 209.005 135.314 209.471 135.566C209.938 135.809 210.302 136.177 210.563 136.672C210.834 137.167 210.969 137.769 210.969 138.478V143H209.709V138.66C209.709 137.895 209.518 137.311 209.135 136.91C208.753 136.499 208.23 136.294 207.567 136.294C206.895 136.294 206.359 136.504 205.957 136.924C205.565 137.344 205.369 137.955 205.369 138.758V143H204.095V132.64H205.369V136.42C205.621 136.028 205.967 135.725 206.405 135.51C206.853 135.295 207.353 135.188 207.903 135.188ZM213.988 134.082C213.746 134.082 213.54 133.998 213.372 133.83C213.204 133.662 213.12 133.457 213.12 133.214C213.12 132.971 213.204 132.766 213.372 132.598C213.54 132.43 213.746 132.346 213.988 132.346C214.222 132.346 214.418 132.43 214.576 132.598C214.744 132.766 214.828 132.971 214.828 133.214C214.828 133.457 214.744 133.662 214.576 133.83C214.418 133.998 214.222 134.082 213.988 134.082ZM214.604 135.328V143H213.33V135.328H214.604ZM219.772 143.126C219.184 143.126 218.656 143.028 218.19 142.832C217.723 142.627 217.354 142.347 217.084 141.992C216.813 141.628 216.664 141.213 216.636 140.746H217.952C217.989 141.129 218.166 141.441 218.484 141.684C218.81 141.927 219.235 142.048 219.758 142.048C220.243 142.048 220.626 141.941 220.906 141.726C221.186 141.511 221.326 141.241 221.326 140.914C221.326 140.578 221.176 140.331 220.878 140.172C220.579 140.004 220.117 139.841 219.492 139.682C218.922 139.533 218.456 139.383 218.092 139.234C217.737 139.075 217.429 138.847 217.168 138.548C216.916 138.24 216.79 137.839 216.79 137.344C216.79 136.952 216.906 136.593 217.14 136.266C217.373 135.939 217.704 135.683 218.134 135.496C218.563 135.3 219.053 135.202 219.604 135.202C220.453 135.202 221.139 135.417 221.662 135.846C222.184 136.275 222.464 136.863 222.502 137.61H221.228C221.2 137.209 221.036 136.887 220.738 136.644C220.448 136.401 220.056 136.28 219.562 136.28C219.104 136.28 218.74 136.378 218.47 136.574C218.199 136.77 218.064 137.027 218.064 137.344C218.064 137.596 218.143 137.806 218.302 137.974C218.47 138.133 218.675 138.263 218.918 138.366C219.17 138.459 219.515 138.567 219.954 138.688C220.504 138.837 220.952 138.987 221.298 139.136C221.643 139.276 221.937 139.491 222.18 139.78C222.432 140.069 222.562 140.447 222.572 140.914C222.572 141.334 222.455 141.712 222.222 142.048C221.988 142.384 221.657 142.65 221.228 142.846C220.808 143.033 220.322 143.126 219.772 143.126ZM229.936 136.742C230.188 136.303 230.562 135.939 231.056 135.65C231.56 135.351 232.144 135.202 232.806 135.202C233.488 135.202 234.104 135.365 234.654 135.692C235.214 136.019 235.653 136.481 235.97 137.078C236.288 137.666 236.446 138.352 236.446 139.136C236.446 139.911 236.288 140.601 235.97 141.208C235.653 141.815 235.214 142.286 234.654 142.622C234.104 142.958 233.488 143.126 232.806 143.126C232.153 143.126 231.574 142.981 231.07 142.692C230.576 142.393 230.198 142.025 229.936 141.586V146.64H228.662V135.328H229.936V136.742ZM235.144 139.136C235.144 138.557 235.028 138.053 234.794 137.624C234.561 137.195 234.244 136.868 233.842 136.644C233.45 136.42 233.016 136.308 232.54 136.308C232.074 136.308 231.64 136.425 231.238 136.658C230.846 136.882 230.529 137.213 230.286 137.652C230.053 138.081 229.936 138.581 229.936 139.15C229.936 139.729 230.053 140.237 230.286 140.676C230.529 141.105 230.846 141.437 231.238 141.67C231.64 141.894 232.074 142.006 232.54 142.006C233.016 142.006 233.45 141.894 233.842 141.67C234.244 141.437 234.561 141.105 234.794 140.676C235.028 140.237 235.144 139.724 235.144 139.136ZM239.677 136.574C239.901 136.135 240.219 135.795 240.629 135.552C241.049 135.309 241.558 135.188 242.155 135.188V136.504H241.819C240.391 136.504 239.677 137.279 239.677 138.828V143H238.403V135.328H239.677V136.574ZM247.252 143.126C246.533 143.126 245.88 142.963 245.292 142.636C244.713 142.309 244.256 141.847 243.92 141.25C243.593 140.643 243.43 139.943 243.43 139.15C243.43 138.366 243.598 137.675 243.934 137.078C244.279 136.471 244.746 136.009 245.334 135.692C245.922 135.365 246.58 135.202 247.308 135.202C248.036 135.202 248.694 135.365 249.282 135.692C249.87 136.009 250.332 136.467 250.668 137.064C251.013 137.661 251.186 138.357 251.186 139.15C251.186 139.943 251.009 140.643 250.654 141.25C250.309 141.847 249.837 142.309 249.24 142.636C248.643 142.963 247.98 143.126 247.252 143.126ZM247.252 142.006C247.709 142.006 248.139 141.899 248.54 141.684C248.941 141.469 249.263 141.147 249.506 140.718C249.758 140.289 249.884 139.766 249.884 139.15C249.884 138.534 249.763 138.011 249.52 137.582C249.277 137.153 248.96 136.835 248.568 136.63C248.176 136.415 247.751 136.308 247.294 136.308C246.827 136.308 246.398 136.415 246.006 136.63C245.623 136.835 245.315 137.153 245.082 137.582C244.849 138.011 244.732 138.534 244.732 139.15C244.732 139.775 244.844 140.303 245.068 140.732C245.301 141.161 245.609 141.483 245.992 141.698C246.375 141.903 246.795 142.006 247.252 142.006ZM252.665 139.136C252.665 138.352 252.824 137.666 253.141 137.078C253.458 136.481 253.892 136.019 254.443 135.692C255.003 135.365 255.628 135.202 256.319 135.202C256.916 135.202 257.472 135.342 257.985 135.622C258.498 135.893 258.89 136.252 259.161 136.7V132.64H260.449V143H259.161V141.558C258.909 142.015 258.536 142.393 258.041 142.692C257.546 142.981 256.968 143.126 256.305 143.126C255.624 143.126 255.003 142.958 254.443 142.622C253.892 142.286 253.458 141.815 253.141 141.208C252.824 140.601 252.665 139.911 252.665 139.136ZM259.161 139.15C259.161 138.571 259.044 138.067 258.811 137.638C258.578 137.209 258.26 136.882 257.859 136.658C257.467 136.425 257.033 136.308 256.557 136.308C256.081 136.308 255.647 136.42 255.255 136.644C254.863 136.868 254.55 137.195 254.317 137.624C254.084 138.053 253.967 138.557 253.967 139.136C253.967 139.724 254.084 140.237 254.317 140.676C254.55 141.105 254.863 141.437 255.255 141.67C255.647 141.894 256.081 142.006 256.557 142.006C257.033 142.006 257.467 141.894 257.859 141.67C258.26 141.437 258.578 141.105 258.811 140.676C259.044 140.237 259.161 139.729 259.161 139.15ZM269.686 135.328V143H268.412V141.866C268.169 142.258 267.829 142.566 267.39 142.79C266.961 143.005 266.485 143.112 265.962 143.112C265.365 143.112 264.828 142.991 264.352 142.748C263.876 142.496 263.498 142.123 263.218 141.628C262.947 141.133 262.812 140.531 262.812 139.822V135.328H264.072V139.654C264.072 140.41 264.263 140.993 264.646 141.404C265.029 141.805 265.551 142.006 266.214 142.006C266.895 142.006 267.432 141.796 267.824 141.376C268.216 140.956 268.412 140.345 268.412 139.542V135.328H269.686ZM271.641 139.15C271.641 138.357 271.8 137.666 272.117 137.078C272.434 136.481 272.873 136.019 273.433 135.692C274.002 135.365 274.651 135.202 275.379 135.202C276.322 135.202 277.096 135.431 277.703 135.888C278.319 136.345 278.725 136.98 278.921 137.792H277.549C277.418 137.325 277.162 136.957 276.779 136.686C276.406 136.415 275.939 136.28 275.379 136.28C274.651 136.28 274.063 136.532 273.615 137.036C273.167 137.531 272.943 138.235 272.943 139.15C272.943 140.074 273.167 140.788 273.615 141.292C274.063 141.796 274.651 142.048 275.379 142.048C275.939 142.048 276.406 141.917 276.779 141.656C277.152 141.395 277.409 141.021 277.549 140.536H278.921C278.716 141.32 278.305 141.95 277.689 142.426C277.073 142.893 276.303 143.126 275.379 143.126C274.651 143.126 274.002 142.963 273.433 142.636C272.873 142.309 272.434 141.847 272.117 141.25C271.8 140.653 271.641 139.953 271.641 139.15ZM282.455 136.378V140.9C282.455 141.273 282.534 141.539 282.693 141.698C282.852 141.847 283.127 141.922 283.519 141.922H284.457V143H283.309C282.6 143 282.068 142.837 281.713 142.51C281.358 142.183 281.181 141.647 281.181 140.9V136.378H280.187V135.328H281.181V133.396H282.455V135.328H284.457V136.378H282.455Z" fill="white"/>
</g>
</g>
<path fill-rule="evenodd" clip-rule="evenodd" d="M103 68.64C121.954 68.64 137.32 53.2744 137.32 34.32C137.32 15.3656 121.954 0 103 0C84.0455 0 68.6799 15.3656 68.6799 34.32C68.6799 44.9926 73.5515 54.5274 81.1923 60.822C81.2045 60.832 81.1936 60.8515 81.1787 60.8464C81.1695 60.8433 81.16 60.8501 81.16 60.8598V71.5042C81.16 74.4834 84.3001 76.4171 86.9605 75.076L98.9719 69.0212C99.6354 68.6867 100.379 68.5494 101.12 68.5894C101.743 68.623 102.369 68.64 103 68.64Z" fill="#2C7721"/>
<path fill-rule="evenodd" clip-rule="evenodd" d="M114.301 24.3463C115.36 25.1583 115.562 26.6744 114.753 27.7356L102.743 43.4828C102.319 44.0381 101.677 44.3831 100.982 44.4294C100.286 44.4757 99.6044 44.2188 99.1114 43.7245L91.4884 36.0814C90.5456 35.1362 90.5456 33.6063 91.4884 32.661C92.4346 31.7123 93.9715 31.7123 94.9177 32.661L100.578 38.3366L110.903 24.7993C111.716 23.7343 113.238 23.5313 114.301 24.3463Z" fill="white"/>
<defs>
<filter id="filter0_bd_617_1497" x="-40" y="-42" width="606" height="300" filterUnits="userSpaceOnUse" color-interpolation-filters="sRGB">
<feFlood flood-opacity="0" result="BackgroundImageFix"/>
<feGaussianBlur in="BackgroundImage" stdDeviation="42"/>
<feComposite in2="SourceAlpha" operator="in" result="effect1_backgroundBlur_617_1497"/>
<feColorMatrix in="SourceAlpha" type="matrix" values="0 0 0 0 0 0 0 0 0 0 0 0 0 0 0 0 0 0 127 0" result="hardAlpha"/>
<feOffset dy="12"/>
<feGaussianBlur stdDeviation="22"/>
<feComposite in2="hardAlpha" operator="out"/>
<feColorMatrix type="matrix" values="0 0 0 0 0.0168765 0 0 0 0 0.746082 0 0 0 0 0.0460446 0 0 0 0.25 0"/>
<feBlend mode="normal" in2="effect1_backgroundBlur_617_1497" result="effect2_dropShadow_617_1497"/>
<feBlend mode="normal" in="SourceGraphic" in2="effect2_dropShadow_617_1497" result="shape"/>
</filter>
<clipPath id="clip0_617_1497">
<rect x="44" y="42" width="438" height="132" rx="32" fill="white"/>
</clipPath>
</defs>
</svg>
